<?xml version="1.0" encoding="utf-8"?>
<!-- Generator: Adobe Illustrator 16.0.0, SVG Export Plug-In . SVG Version: 6.00 Build 0)  -->
<!DOCTYPE svg PUBLIC "-//W3C//DTD SVG 1.1//EN" "http://www.w3.org/Graphics/SVG/1.1/DTD/svg11.dtd">
<svg version="1.1" id="Layer_1" xmlns="http://www.w3.org/2000/svg" xmlns:xlink="http://www.w3.org/1999/xlink" x="0px" y="0px"
	 width="39.333px" height="39.333px" viewBox="0 0 39.333 39.333" enable-background="new 0 0 39.333 39.333" xml:space="preserve">
<path fill="#FFFFFF" d="M32.714,25.723c-1.961,0-3.881-0.306-5.707-0.908c-0.881-0.301-1.889-0.073-2.48,0.524l-3.596,2.728
	c-4.148-2.207-6.791-4.858-8.977-8.969l2.652-3.521c0.672-0.667,0.906-1.64,0.621-2.556c-0.604-1.836-0.916-3.754-0.916-5.71
	c0-1.384-1.119-2.509-2.502-2.509H5.954c-1.383,0-2.508,1.125-2.508,2.509c0,16.139,13.131,29.266,29.268,29.266
	c1.379,0,2.504-1.126,2.504-2.509v-5.834C35.218,26.851,34.093,25.723,32.714,25.723z"/>
</svg>
