<?xml version="1.0" encoding="utf-8"?>
<!-- Generator: Adobe Illustrator 16.0.0, SVG Export Plug-In . SVG Version: 6.00 Build 0)  -->
<!DOCTYPE svg PUBLIC "-//W3C//DTD SVG 1.1//EN" "http://www.w3.org/Graphics/SVG/1.1/DTD/svg11.dtd">
<svg version="1.1" id="Layer_1" xmlns="http://www.w3.org/2000/svg" xmlns:xlink="http://www.w3.org/1999/xlink" x="0px" y="0px"
	 width="58px" height="39.333px" viewBox="0 0 58 39.333" enable-background="new 0 0 58 39.333" xml:space="preserve">
<g>
	<path fill="#FFFFFF" d="M47.535,29.557V9.768c0-0.085-0.012-0.171-0.029-0.254L34.145,20.645L47.535,29.557z"/>
	<path fill="#FFFFFF" d="M32.936,21.65l-1.686,1.405c-0.787,0.655-1.756,0.987-2.734,0.987c-0.965,0-1.93-0.332-2.732-0.987
		l-1.678-1.405L9.51,31.363v0.202c0,0.824,0.68,1.503,1.512,1.503h35.006c0.832,0,1.508-0.679,1.508-1.503v-0.202L32.936,21.65z"/>
	<path fill="#FFFFFF" d="M46.027,8.265H11.021h-0.008c-0.215,0.002-0.309,0.268-0.141,0.402l13.756,11.459
		c0.004,0,0.004,0,0.004,0.005l2.121,1.767c1.027,0.855,2.51,0.855,3.537,0l15.885-13.23c0.164-0.135,0.076-0.4-0.141-0.402H46.027z
		"/>
	<path fill="#FFFFFF" d="M22.898,20.645L9.531,9.514C9.52,9.597,9.51,9.683,9.51,9.768v19.789L22.898,20.645z"/>
</g>
</svg>
