<?xml version="1.0" encoding="utf-8"?>
<!-- Generator: Adobe Illustrator 16.0.0, SVG Export Plug-In . SVG Version: 6.00 Build 0)  -->
<!DOCTYPE svg PUBLIC "-//W3C//DTD SVG 1.1//EN" "http://www.w3.org/Graphics/SVG/1.1/DTD/svg11.dtd">
<svg version="1.1" id="Layer_1" xmlns="http://www.w3.org/2000/svg" xmlns:xlink="http://www.w3.org/1999/xlink" x="0px" y="0px"
	 width="247.955px" height="202.467px" viewBox="0 0 247.955 202.467" enable-background="new 0 0 247.955 202.467"
	 xml:space="preserve">
<path fill="#FFFFFF" d="M171.07,2.467l-15.385,23.925l0.102,0.019c-9.275-4.602-19.9-7.455-31.193-7.455
	c-11.74,0-23.701,2.743-33.23,7.69L76.682,3.467H2.025L67.33,108.952l0.182-0.459c11.234,18.223,32.58,30.293,57.082,30.293
	c11.086,0,20.57-3.602,29.725-8.048l-30.07,50.951l-18.846-31.379l-15.129-5.477l33.975,56.854c0,0,60.568-95.219,63.129-105.219
	h-13.883c-11.51,17-27.158,31.346-49.971,31.346c-29.545,0-53.496-22.288-53.496-49.544c0-10.343,3.459-20.025,9.354-27.953
	l-5.879-9.087c-7.977,9.097-13.117,20.329-14.184,32.646l-0.619-0.972L21.506,12.467h49.455l10.076,16.178l11.447,19.047
	l31.613,50.329l26.42-45.115l-8.146-4.914l-18.346,30.324L97.199,35.119c7.775-4.063,16.553-6.394,26.125-6.394
	c19.199,0.028,36.283,13.017,42.52,19.793c0.707,0.77,2.561,2.769,3.184,3.458c6.094,6.726,23.738,32.736,39.996,9.352
	l36.998-58.861H171.07z M201.836,54.416c-0.053,0.082-7.354,13.051-19.086-2.949h-0.004c-5.504-5-10.527-12.146-17.512-18.407
	l12.289-20.593h49.242L201.836,54.416z"/>
</svg>
