<?xml version="1.0" encoding="utf-8"?>
<!-- Generator: Adobe Illustrator 16.0.0, SVG Export Plug-In . SVG Version: 6.00 Build 0)  -->
<!DOCTYPE svg PUBLIC "-//W3C//DTD SVG 1.1//EN" "http://www.w3.org/Graphics/SVG/1.1/DTD/svg11.dtd">
<svg version="1.1" id="Layer_1" xmlns="http://www.w3.org/2000/svg" xmlns:xlink="http://www.w3.org/1999/xlink" x="0px" y="0px"
	 width="125px" height="125px" viewBox="37.5 37.5 125 125" enable-background="new 37.5 37.5 125 125" xml:space="preserve">
<g>
	<path fill="#FFFFFF" d="M100.503,54.037h-1.056C73.892,54.31,53.269,74.77,53.269,100c0,25.373,20.933,45.963,46.732,45.963
		c25.794,0,46.73-20.591,46.73-45.963C146.732,74.77,126.074,54.31,100.503,54.037z M128.021,89.621
		c0.039,0.602,0.072,1.19,0.072,1.775c0,18.004-13.148,38.761-37.126,38.761c-7.36,0-14.227-2.246-19.987-6.116
		c1.022,0.127,2.057,0.182,3.106,0.182c6.115,0,11.742-2.168,16.205-5.824c-5.711-0.099-10.537-4.051-12.205-9.449
		c0.832,0.142,1.627,0.24,2.496,0.24c1.199,0,2.305-0.16,3.41-0.488c-5.969-1.235-10.455-6.75-10.455-13.355v-0.112
		c1.789,0.963,3.752,1.564,5.904,1.625c-3.498-2.423-5.822-6.584-5.822-11.318c0-2.507,0.68-4.85,1.783-6.866
		c6.446,8.247,16.055,13.682,26.873,14.249c-0.227-1.006-0.34-2.047-0.34-3.106c0-7.545,5.838-13.629,13.075-13.629
		c3.726,0,7.125,1.66,9.482,4.292c2.992-0.601,5.779-1.752,8.311-3.303c-0.994,3.175-3.063,5.856-5.756,7.568
		c2.633-0.33,5.154-1.075,7.494-2.182C132.807,85.344,130.58,87.718,128.021,89.621z"/>
</g>
</svg>
