<?xml version="1.0" encoding="utf-8"?>
<!-- Generator: Adobe Illustrator 16.0.0, SVG Export Plug-In . SVG Version: 6.00 Build 0)  -->
<!DOCTYPE svg PUBLIC "-//W3C//DTD SVG 1.1//EN" "http://www.w3.org/Graphics/SVG/1.1/DTD/svg11.dtd">
<svg version="1.1" id="Layer_1" xmlns="http://www.w3.org/2000/svg" xmlns:xlink="http://www.w3.org/1999/xlink" x="0px" y="0px"
	 width="125px" height="125px" viewBox="37.5 37.5 125 125" enable-background="new 37.5 37.5 125 125" xml:space="preserve">
<g>
	<path fill="#FFFFFF" d="M100.522,54.036h-1.076c-25.436,0.29-45.943,20.523-46.178,45.555v0.816
		c0.234,25.19,21.051,45.557,46.697,45.557c25.836,0,46.766-20.591,46.766-45.967C146.731,74.77,126.073,54.325,100.522,54.036z
		 M116.819,80.564h-6.08c-4.799,0-5.748,2.293-5.748,5.594v7.318h11.422l-1.481,11.5h-9.938v29.452H93.106v-29.452h-9.971v-11.5
		h9.971v-8.474c0-9.81,6.031-15.158,14.834-15.158c4.213,0,7.84,0.308,8.879,0.455V80.564z"/>
</g>
</svg>
