<?xml version="1.0" encoding="utf-8"?>
<!-- Generator: Adobe Illustrator 16.0.0, SVG Export Plug-In . SVG Version: 6.00 Build 0)  -->
<!DOCTYPE svg PUBLIC "-//W3C//DTD SVG 1.1//EN" "http://www.w3.org/Graphics/SVG/1.1/DTD/svg11.dtd">
<svg version="1.1" id="Layer_1" xmlns="http://www.w3.org/2000/svg" xmlns:xlink="http://www.w3.org/1999/xlink" x="0px" y="0px"
	 width="125px" height="125px" viewBox="37.5 0.25 125 125" enable-background="new 37.5 0.25 125 125" xml:space="preserve">
<g>
	<g>
		<path fill="#FFFFFF" d="M100.515,16.786h-1.06C73.902,17.064,53.268,37.525,53.268,62.76c0,25.357,20.926,45.955,46.727,45.955
			c25.799,0,46.738-20.597,46.738-45.955C146.731,37.526,126.082,17.065,100.515,16.786z M128.306,84.315
			c0,3.706-3.033,7.19-6.758,7.19H78.455c-3.725,0-6.453-3.484-6.453-7.19V41.189c0-3.709,2.729-5.99,6.453-5.99h43.095
			c3.725,0,6.758,2.28,6.758,5.99v43.126H128.306z"/>
		<path fill="#FFFFFF" d="M117.269,63.474c0,9.474-7.711,16.768-17.198,16.768c-9.479,0-17.209-7.425-17.209-16.896
			c0-1.577,0.215-2.866,0.619-4.016h-5.734v23.537c0,0.879,1.144,1.743,2.009,1.743h40.602c0.885,0,1.057-0.864,1.057-1.743V59.33
			h-4.766C117.041,60.48,117.269,61.9,117.269,63.474z"/>
		<path fill="#FFFFFF" d="M100.07,73.656c6.004,0,10.875-4.846,10.875-10.833c0-6-4.871-10.85-10.875-10.85
			c-6.01,0-10.877,4.85-10.877,10.85C89.193,68.811,94.061,73.656,100.07,73.656z"/>
		<path fill="#FFFFFF" d="M120.226,40.945h-7.643c-0.881,0-1.514,0.684-1.514,1.561v7.63c0,0.866,0.633,2.3,1.514,2.3h7.643
			c0.881,0,1.187-1.434,1.187-2.3v-7.63C121.412,41.629,121.106,40.945,120.226,40.945z"/>
	</g>
</g>
</svg>
